<svg xmlns="http://www.w3.org/2000/svg" viewBox="0 0 1200 750" font-family="Georgia, serif">
  <rect width="1200" height="750" fill="#0e1420"/>
  <!-- Barre navigateur -->
  <rect width="1200" height="56" fill="#171f30"/>
  <circle cx="28" cy="28" r="6" fill="#ff5f57"/><circle cx="50" cy="28" r="6" fill="#febc2e"/><circle cx="72" cy="28" r="6" fill="#28c840"/>
  <rect x="340" y="14" width="520" height="28" rx="14" fill="#222c42"/>
  <text x="600" y="33" text-anchor="middle" fill="#7f8ba3" font-size="14" font-family="Arial, sans-serif">cabinet-delcourt.fr</text>
  <!-- Navigation -->
  <text x="80" y="122" fill="#e8ddc3" font-size="26" letter-spacing="2">CABINET DELCOURT</text>
  <text x="80" y="146" fill="#8fa0bd" font-size="13" font-family="Arial, sans-serif" letter-spacing="4">AVOCATS ASSOCIÉS</text>
  <rect x="760" y="108" width="70" height="10" rx="5" fill="#3a475f"/>
  <rect x="850" y="108" width="70" height="10" rx="5" fill="#3a475f"/>
  <rect x="940" y="108" width="70" height="10" rx="5" fill="#3a475f"/>
  <!-- Héros -->
  <text x="80" y="280" fill="#f4f0e6" font-size="54">La rigueur au service</text>
  <text x="80" y="345" fill="#c8a96a" font-size="54" font-style="italic">de vos intérêts.</text>
  <rect x="80" y="385" width="380" height="11" rx="5" fill="#2c3850"/>
  <rect x="80" y="410" width="300" height="11" rx="5" fill="#2c3850"/>
  <rect x="80" y="460" width="240" height="48" rx="24" fill="#c8a96a"/>
  <text x="200" y="490" text-anchor="middle" fill="#0e1420" font-size="16" font-family="Arial, sans-serif" font-weight="bold">Prendre rendez-vous</text>
  <!-- Colonne balance -->
  <rect x="800" y="180" width="320" height="330" rx="12" fill="#171f30"/>
  <line x1="960" y1="250" x2="960" y2="400" stroke="#c8a96a" stroke-width="6"/>
  <line x1="880" y1="270" x2="1040" y2="270" stroke="#c8a96a" stroke-width="6"/>
  <path d="M880 270 l-26 60 a26 26 0 0 0 52 0 z" fill="none" stroke="#c8a96a" stroke-width="4"/>
  <path d="M1040 270 l-26 60 a26 26 0 0 0 52 0 z" fill="none" stroke="#c8a96a" stroke-width="4"/>
  <rect x="905" y="400" width="110" height="14" rx="7" fill="#c8a96a"/>
  <!-- Domaines d'expertise -->
  <rect x="80" y="570" width="250" height="120" rx="10" fill="#171f30"/>
  <rect x="104" y="594" width="120" height="10" rx="5" fill="#c8a96a"/>
  <rect x="104" y="620" width="190" height="9" rx="4" fill="#2c3850"/>
  <rect x="104" y="642" width="160" height="9" rx="4" fill="#2c3850"/>
  <rect x="360" y="570" width="250" height="120" rx="10" fill="#171f30"/>
  <rect x="384" y="594" width="120" height="10" rx="5" fill="#c8a96a"/>
  <rect x="384" y="620" width="190" height="9" rx="4" fill="#2c3850"/>
  <rect x="384" y="642" width="160" height="9" rx="4" fill="#2c3850"/>
  <rect x="640" y="570" width="250" height="120" rx="10" fill="#171f30"/>
  <rect x="664" y="594" width="120" height="10" rx="5" fill="#c8a96a"/>
  <rect x="664" y="620" width="190" height="9" rx="4" fill="#2c3850"/>
  <rect x="664" y="642" width="160" height="9" rx="4" fill="#2c3850"/>
  <rect x="920" y="570" width="200" height="120" rx="10" fill="#c8a96a"/>
  <rect x="944" y="594" width="100" height="10" rx="5" fill="#0e1420"/>
  <rect x="944" y="620" width="140" height="9" rx="4" fill="#0e1420" opacity="0.5"/>
  <rect x="944" y="642" width="110" height="9" rx="4" fill="#0e1420" opacity="0.5"/>
</svg>
